<svg width="18" height="19" viewBox="0 0 18 19" fill="none" xmlns="http://www.w3.org/2000/svg">
<g clip-path="url(#clip0_1_472)">
<path d="M17.9913 9.67772C17.9913 8.8993 17.9301 8.33126 17.7975 7.74219H9.1792V11.2556H14.238C14.136 12.1287 13.5853 13.4436 12.3613 14.3272L12.3442 14.4448L15.0691 16.6221L15.2579 16.6415C16.9918 14.99 17.9913 12.56 17.9913 9.67772Z" fill="#4285F4"/>
<path d="M9.1792 18.9347C11.6576 18.9347 13.7382 18.0931 15.2579 16.6415L12.3613 14.3272C11.5862 14.8847 10.5459 15.2739 9.1792 15.2739C6.7518 15.2739 4.69157 13.6225 3.95716 11.3398L3.84951 11.3492L1.01606 13.6109L0.979004 13.7171C2.48847 16.8098 5.58904 18.9347 9.1792 18.9347Z" fill="#34A853"/>
<path d="M3.95726 11.3398C3.76348 10.7508 3.65133 10.1196 3.65133 9.46739C3.65133 8.81516 3.76348 8.18402 3.94706 7.59495L3.94193 7.46949L1.07297 5.17151L0.979102 5.21756C0.356977 6.50093 0 7.9421 0 9.46739C0 10.9927 0.356977 12.4338 0.979102 13.7172L3.95726 11.3398Z" fill="#FBBC05"/>
<path d="M9.1792 3.66069C10.9028 3.66069 12.0655 4.4286 12.7285 5.07032L15.3191 2.46152C13.7281 0.936221 11.6576 0 9.1792 0C5.58904 0 2.48847 2.12488 0.979004 5.21753L3.94696 7.59492C4.69157 5.31224 6.7518 3.66069 9.1792 3.66069Z" fill="#EB4335"/>
</g>
<defs>
<clipPath id="clip0_1_472">
<rect width="18" height="19" fill="white"/>
</clipPath>
</defs>
</svg>
